<?xml version="1.0" encoding="UTF-8"?>
<svg width="1200pt" height="1200pt" version="1.1" viewBox="0 0 1200 1200" xmlns="http://www.w3.org/2000/svg">
 <path d="m1012.5 655c26.25-33.75 25-83.75-6.25-115-10-10-23.75-17.5-37.5-21.25 5-11.25 7.5-23.75 7.5-36.25 0-23.75-8.75-45-25-61.25-31.25-31.25-78.75-33.75-112.5-8.75-3.75-10-8.75-20-16.25-28.75-16.25-17.5-38.75-28.75-62.5-28.75-22.5-1.25-45 7.5-61.25 23.75-2.5-3.75-5-8.75-8.75-11.25-16.25-17.5-38.75-28.75-62.5-28.75-25-1.25-47.5 8.75-63.75 25l-125 123.75c-13.75-52.5-63.75-88.75-118.75-82.5-15 1.25-28.75 8.75-38.75 18.75-22.5-25-57.5-40-93.75-36.25-33.75 3.75-60 32.5-60 67.5l1.25 181.25c0 47.5-6.25 96.25-17.5 138.75v1.25c-25 87.5 0 181.25 63.75 245 66.25 66.25 155 102.5 247.5 102.5 7.5 0 16.25 0 23.75-1.25 35 11.25 72.5 17.5 108.75 17.5 90 0 180-33.75 247.5-102.5l241.25-242.5c16.25-16.25 25-38.75 25-61.25 0-23.75-8.75-45-25-61.25-8.75-7.5-20-13.75-31.25-17.5zm-412.5-255c7.5-7.5 17.5-10 26.25-10 10 0 18.75 5 25 11.25 3.75 5 6.25 11.25 6.25 17.5l-206.25 211.25-6.25-76.25zm-388.75 586.25c-51.25-51.25-70-125-51.25-193.75 13.75-50 20-102.5 20-155l-1.25-181.25c0-7.5 6.25-15 13.75-15 32.5-3.75 61.25 20 65 51.25l2.5 30 1.25 131.25c0 47.5-6.25 95-16.25 137.5 0 1.25-1.25 1.25-1.25 2.5-25 87.5 0 181.25 63.75 245 6.25 6.25 13.75 12.5 20 18.75-43.75-15-83.75-38.75-116.25-71.25zm796.25-226.25-241.25 242.5c-116.25 116.25-306.25 116.25-422.5 0-50-50-70-123.75-51.25-192.5v-1.25c13.75-51.25 20-102.5 20-155v-181.25c0-7.5 6.25-15 13.75-15 32.5-3.75 61.25 20 65 51.25l8.75 126.25c2.5 18.75 15 35 32.5 41.25 18.75 6.25 37.5 1.25 51.25-11.25l247.5-247.5c7.5-7.5 13.75-11.25 26.25-10 10 0 18.75 5 25 11.25 11.25 12.5 10 37.5-3.75 51.25l-183.75 185c-10 10-10 26.25 0 36.25 5 5 11.25 7.5 18.75 7.5 6.25 0 13.75-2.5 18.75-7.5l233.75-233.75c13.75-13.75 36.25-13.75 50 0 6.25 6.25 10 15 10 25s-3.75 18.75-10 25l-235 233.75c-10 10-10 26.25 0 36.25 5 5 11.25 7.5 18.75 7.5s13.75-2.5 18.75-7.5l201.25-201.25c13.75-13.75 36.25-13.75 50 0s13.75 36.25 0 50l-47.5 47.5-35 33.75-120 120c-10 10-10 26.25 0 36.25 5 5 11.25 7.5 18.75 7.5s13.75-2.5 18.75-7.5l153.75-153.75c13.75-13.75 36.25-13.75 50 0 6.25 6.25 10 15 10 25s-3.75 18.75-11.25 25zm-161.25-532.5 63.75-136.25c6.25-12.5 21.25-18.75 33.75-12.5s18.75 21.25 12.5 33.75l-62.5 137.5c-5 10-13.75 15-23.75 15-3.75 0-7.5-1.25-11.25-2.5-12.5-6.25-17.5-22.5-12.5-35zm-133.75-138.75c-3.75-13.75 5-27.5 18.75-31.25s27.5 3.75 31.25 17.5l38.75 145c3.75 13.75-5 27.5-18.75 31.25-2.5 0-5 1.25-6.25 1.25-11.25 0-21.25-7.5-25-18.75zm373.75 175-136.25 63.75c-3.75 1.25-7.5 2.5-11.25 2.5-10 0-18.75-5-23.75-15-6.25-12.5 0-28.75 12.5-33.75l136.25-63.75c12.5-6.25 28.75 0 33.75 12.5 7.5 12.5 1.25 27.5-11.25 33.75z"/>
</svg>
