<?xml version="1.0" standalone="no"?>
<!DOCTYPE svg PUBLIC "-//W3C//DTD SVG 20010904//EN"
 "http://www.w3.org/TR/2001/REC-SVG-20010904/DTD/svg10.dtd">
<svg version="1.0" xmlns="http://www.w3.org/2000/svg"
 width="1570.000000pt" height="1569.000000pt" viewBox="0 0 1570.000000 1569.000000"
 preserveAspectRatio="xMidYMid meet">

<g transform="translate(0.000000,1569.000000) scale(0.100000,-0.100000)"
fill="#000000" stroke="none">
<path d="M4970 12211 c-30 -10 -69 -25 -86 -34 -52 -27 -142 -116 -153 -150
-5 -18 -94 -524 -197 -1126 -132 -777 -184 -1099 -177 -1110 7 -11 -10 -133
-58 -411 -926 -5388 -1059 -6174 -1047 -6185 12 -12 2568 -2107 2596 -2128 22
-17 119 -26 183 -17 81 12 177 58 239 116 50 47 120 167 120 206 0 11 65 399
145 864 80 464 145 848 145 854 0 6 498 10 1438 12 l1437 4 125 22 c603 109
1081 353 1491 762 799 797 1018 1993 555 3029 -133 298 -325 572 -569 814 -60
60 -108 109 -106 111 2 1 29 13 59 25 487 203 921 621 1155 1114 230 485 281
1028 145 1553 -234 904 -1020 1582 -1952 1683 -66 8 -954 11 -2765 10 -2527 0
-2671 -1 -2723 -18z"/>
</g>
</svg>
